<svg width="30" height="30" viewBox="0 0 30 30" fill="none" xmlns="http://www.w3.org/2000/svg">
<g clip-path="url(#clip0_13_164)">
<path fill-rule="evenodd" clip-rule="evenodd" d="M10.6157 4.36574C11.7785 3.20302 13.3555 2.5498 14.9998 2.5498C16.6441 2.5498 18.2211 3.20302 19.3839 4.36574C20.5466 5.52847 21.1998 7.10546 21.1998 8.7498C21.1998 10.3941 20.5466 11.9711 19.3839 13.1339C18.2211 14.2966 16.6441 14.9498 14.9998 14.9498C13.3555 14.9498 11.7785 14.2966 10.6157 13.1339C9.45302 11.9711 8.7998 10.3941 8.7998 8.7498C8.7998 7.10546 9.45302 5.52847 10.6157 4.36574ZM14.9998 4.9498C13.992 4.9498 13.0254 5.35016 12.3128 6.0628C11.6002 6.77544 11.1998 7.74198 11.1998 8.7498C11.1998 9.75763 11.6002 10.7242 12.3128 11.4368C13.0254 12.1494 13.992 12.5498 14.9998 12.5498C16.0076 12.5498 16.9742 12.1494 17.6868 11.4368C18.3994 10.7242 18.7998 9.75763 18.7998 8.7498C18.7998 7.74198 18.3994 6.77544 17.6868 6.0628C16.9742 5.35016 16.0076 4.9498 14.9998 4.9498Z" fill="#11233F"/>
<path fill-rule="evenodd" clip-rule="evenodd" d="M12.4998 19.9498C11.492 19.9498 10.5254 20.3502 9.8128 21.0628C9.10016 21.7754 8.6998 22.742 8.6998 23.7498V26.2498C8.6998 26.9125 8.16255 27.4498 7.4998 27.4498C6.83706 27.4498 6.2998 26.9125 6.2998 26.2498V23.7498C6.2998 22.1055 6.95302 20.5285 8.11574 19.3657C9.27847 18.203 10.8555 17.5498 12.4998 17.5498H17.4998C18.1625 17.5498 18.6998 18.0871 18.6998 18.7498C18.6998 19.4125 18.1625 19.9498 17.4998 19.9498H12.4998Z" fill="#11233F"/>
<path fill-rule="evenodd" clip-rule="evenodd" d="M27.0983 20.4013C27.567 20.8699 27.567 21.6297 27.0983 22.0983L22.0983 27.0983C21.6297 27.567 20.8699 27.567 20.4013 27.0983L17.9013 24.5983C17.4326 24.1297 17.4326 23.3699 17.9013 22.9013C18.3699 22.4326 19.1297 22.4326 19.5983 22.9013L21.2498 24.5527L25.4013 20.4013C25.8699 19.9326 26.6297 19.9326 27.0983 20.4013Z" fill="#0068B7"/>
</g>
<defs>
<clipPath id="clip0_13_164">
<rect width="30" height="30" fill="white"/>
</clipPath>
</defs>
</svg>
