<svg width="25" height="27" viewBox="0 0 25 27" fill="none" xmlns="http://www.w3.org/2000/svg">
<path fill-rule="evenodd" clip-rule="evenodd" d="M3.13351 1.63351C3.82739 0.939625 4.7685 0.549805 5.7498 0.549805C6.73111 0.549805 7.67221 0.939625 8.3661 1.63351C9.05998 2.32739 9.4498 3.2685 9.4498 4.2498C9.4498 5.23111 9.05998 6.17222 8.3661 6.8661C7.67221 7.55998 6.73111 7.9498 5.7498 7.9498C4.7685 7.9498 3.82739 7.55999 3.13351 6.8661C2.43962 6.17222 2.0498 5.23111 2.0498 4.2498C2.0498 3.2685 2.43962 2.32739 3.13351 1.63351ZM5.7498 2.9498C5.40502 2.9498 5.07436 3.08677 4.83057 3.33057C4.58677 3.57436 4.44981 3.90502 4.44981 4.2498C4.44981 4.59459 4.58677 4.92525 4.83057 5.16904C5.07436 5.41284 5.40502 5.5498 5.7498 5.5498C6.09459 5.5498 6.42525 5.41284 6.66904 5.16904C6.91284 4.92525 7.0498 4.59459 7.0498 4.2498C7.0498 3.90502 6.91284 3.57436 6.66904 3.33057C6.42525 3.08677 6.09459 2.9498 5.7498 2.9498Z" fill="white"/>
<path fill-rule="evenodd" clip-rule="evenodd" d="M3.2498 12.9498C3.23654 12.9498 3.22383 12.9551 3.21445 12.9644C3.20507 12.9738 3.1998 12.9865 3.1998 12.9998V17.5027L4.09833 18.4013C4.32338 18.6263 4.4498 18.9315 4.4498 19.2498V25.4998C4.4498 26.1625 3.91255 26.6998 3.2498 26.6998C2.58706 26.6998 2.0498 26.1625 2.0498 25.4998V19.7469L1.15128 18.8483C0.926233 18.6233 0.799805 18.3181 0.799805 17.9998V12.9998C0.799805 12.35 1.05793 11.7269 1.51739 11.2674C1.97686 10.8079 2.60002 10.5498 3.2498 10.5498H8.2498C8.89959 10.5498 9.52275 10.8079 9.98222 11.2674C10.4417 11.7269 10.6998 12.35 10.6998 12.9998V17.9998C10.6998 18.3181 10.5734 18.6233 10.3483 18.8483L9.4498 19.7469V25.4998C9.4498 26.1625 8.91255 26.6998 8.2498 26.6998C7.58706 26.6998 7.0498 26.1625 7.0498 25.4998V19.2498C7.0498 18.9315 7.17623 18.6263 7.40128 18.4013L8.2998 17.5027V12.9998C8.2998 12.9865 8.29454 12.9738 8.28516 12.9644C8.27578 12.9551 8.26306 12.9498 8.2498 12.9498H3.2498Z" fill="white"/>
<path fill-rule="evenodd" clip-rule="evenodd" d="M15.6335 1.63351C16.3274 0.939625 17.2685 0.549805 18.2498 0.549805C19.2311 0.549805 20.1722 0.939625 20.8661 1.63351C21.56 2.32739 21.9498 3.2685 21.9498 4.2498C21.9498 5.23111 21.56 6.17222 20.8661 6.8661C20.1722 7.55998 19.2311 7.9498 18.2498 7.9498C17.2685 7.9498 16.3274 7.55998 15.6335 6.8661C14.9396 6.17222 14.5498 5.23111 14.5498 4.2498C14.5498 3.2685 14.9396 2.32739 15.6335 1.63351ZM18.2498 2.9498C17.905 2.9498 17.5744 3.08677 17.3306 3.33057C17.0868 3.57436 16.9498 3.90502 16.9498 4.2498C16.9498 4.59459 17.0868 4.92525 17.3306 5.16904C17.5744 5.41284 17.905 5.5498 18.2498 5.5498C18.5946 5.5498 18.9252 5.41284 19.169 5.16904C19.4128 4.92525 19.5498 4.59459 19.5498 4.2498C19.5498 3.90502 19.4128 3.57436 19.169 3.33057C18.9252 3.08677 18.5946 2.9498 18.2498 2.9498Z" fill="white"/>
<path fill-rule="evenodd" clip-rule="evenodd" d="M16.9998 12.9498C16.9865 12.9498 16.9738 12.9551 16.9645 12.9644C16.9551 12.9738 16.9498 12.9865 16.9498 12.9998C16.9498 13.1288 16.929 13.2569 16.8882 13.3793L14.9147 19.2998H15.7498C16.4125 19.2998 16.9498 19.8371 16.9498 20.4998V25.4998C16.9498 26.1625 16.4125 26.6998 15.7498 26.6998C15.0871 26.6998 14.5498 26.1625 14.5498 25.4998V21.6998H13.2498C12.8641 21.6998 12.5019 21.5144 12.2763 21.2015C12.0508 20.8885 11.9894 20.4863 12.1114 20.1203L14.5603 12.7737C14.6128 12.2069 14.8615 11.6733 15.2674 11.2674C15.7269 10.8079 16.35 10.5498 16.9998 10.5498H19.4998C20.1496 10.5498 20.7728 10.8079 21.2322 11.2674C21.6381 11.6733 21.8869 12.2069 21.9394 12.7737L24.3882 20.1203C24.5102 20.4863 24.4488 20.8885 24.2233 21.2015C23.9978 21.5144 23.6355 21.6998 23.2498 21.6998H21.9498V25.4998C21.9498 26.1625 21.4125 26.6998 20.7498 26.6998C20.0871 26.6998 19.5498 26.1625 19.5498 25.4998V20.4998C19.5498 19.8371 20.0871 19.2998 20.7498 19.2998H21.5849L19.6114 13.3793C19.5706 13.2569 19.5498 13.1288 19.5498 12.9998C19.5498 12.9865 19.5445 12.9738 19.5352 12.9644C19.5258 12.9551 19.5131 12.9498 19.4998 12.9498H16.9998Z" fill="white"/>
</svg>
