<svg width="30" height="30" viewBox="0 0 30 30" fill="none" xmlns="http://www.w3.org/2000/svg">
<path fill-rule="evenodd" clip-rule="evenodd" d="M10.0498 21.2498C10.0498 20.5871 10.5871 20.0498 11.2498 20.0498H12.4998C13.1625 20.0498 13.6998 20.5871 13.6998 21.2498C13.6998 21.9125 13.1625 22.4498 12.4998 22.4498H11.2498C10.5871 22.4498 10.0498 21.9125 10.0498 21.2498ZM16.2998 21.2498C16.2998 20.5871 16.8371 20.0498 17.4998 20.0498H18.7498C19.4125 20.0498 19.9498 20.5871 19.9498 21.2498C19.9498 21.9125 19.4125 22.4498 18.7498 22.4498H17.4998C16.8371 22.4498 16.2998 21.9125 16.2998 21.2498Z" fill="#0068B7"/>
<path d="M3.75 26.25H26.25M6.25 26.25V11.25L12.5 16.25V11.25L18.75 16.25H23.75M23.75 16.25V26.25M23.75 16.25L21.955 4.2825C21.9328 4.13431 21.8581 3.99902 21.7446 3.90128C21.631 3.80354 21.4861 3.74985 21.3363 3.75H19.905C19.7568 3.74977 19.6134 3.80218 19.5003 3.89788C19.3872 3.99358 19.3118 4.12635 19.2875 4.2725L17.5 15" stroke="#11233F" stroke-width="2.4" stroke-linecap="round" stroke-linejoin="round"/>
</svg>
