<svg width="30" height="30" viewBox="0 0 30 30" fill="none" xmlns="http://www.w3.org/2000/svg">
<g clip-path="url(#clip0_20_21)">
<path fill-rule="evenodd" clip-rule="evenodd" d="M6.13351 3.63351C6.82739 2.93962 7.7685 2.5498 8.7498 2.5498C9.73111 2.5498 10.6722 2.93962 11.3661 3.63351C12.06 4.32739 12.4498 5.2685 12.4498 6.2498C12.4498 7.23111 12.06 8.17222 11.3661 8.8661C10.6722 9.55998 9.73111 9.9498 8.7498 9.9498C7.7685 9.9498 6.82739 9.55998 6.13351 8.8661C5.43962 8.17222 5.0498 7.23111 5.0498 6.2498C5.0498 5.2685 5.43962 4.32739 6.13351 3.63351ZM8.7498 4.9498C8.40502 4.9498 8.07436 5.08677 7.83057 5.33057C7.58677 5.57436 7.44981 5.90502 7.44981 6.2498C7.44981 6.59459 7.58677 6.92525 7.83057 7.16904C8.07436 7.41284 8.40502 7.5498 8.7498 7.5498C9.09459 7.5498 9.42525 7.41284 9.66904 7.16904C9.91284 6.92525 10.0498 6.59459 10.0498 6.2498C10.0498 5.90502 9.91284 5.57436 9.66904 5.33057C9.42525 5.08677 9.09459 4.9498 8.7498 4.9498Z" fill="#11233F"/>
<path fill-rule="evenodd" clip-rule="evenodd" d="M6.2498 14.9498C6.23654 14.9498 6.22383 14.9551 6.21445 14.9644C6.20507 14.9738 6.1998 14.9865 6.1998 14.9998V19.5027L7.09833 20.4013C7.32338 20.6263 7.4498 20.9315 7.4498 21.2498V27.4998C7.4498 28.1625 6.91255 28.6998 6.2498 28.6998C5.58706 28.6998 5.0498 28.1625 5.0498 27.4998V21.7469L4.15128 20.8483C3.92623 20.6233 3.7998 20.3181 3.7998 19.9998V14.9998C3.7998 14.35 4.05793 13.7269 4.51739 13.2674C4.97686 12.8079 5.60002 12.5498 6.2498 12.5498H11.2498C11.8996 12.5498 12.5228 12.8079 12.9822 13.2674C13.4417 13.7269 13.6998 14.35 13.6998 14.9998V19.9998C13.6998 20.3181 13.5734 20.6233 13.3483 20.8483L12.4498 21.7469V27.4998C12.4498 28.1625 11.9125 28.6998 11.2498 28.6998C10.5871 28.6998 10.0498 28.1625 10.0498 27.4998V21.2498C10.0498 20.9315 10.1762 20.6263 10.4013 20.4013L11.2998 19.5027V14.9998C11.2998 14.9865 11.2945 14.9738 11.2852 14.9644C11.2758 14.9551 11.2631 14.9498 11.2498 14.9498H6.2498Z" fill="#0068B7"/>
<path fill-rule="evenodd" clip-rule="evenodd" d="M18.6335 3.63351C19.3274 2.93962 20.2685 2.5498 21.2498 2.5498C22.2311 2.5498 23.1722 2.93962 23.8661 3.63351C24.56 4.32739 24.9498 5.2685 24.9498 6.2498C24.9498 7.23111 24.56 8.17222 23.8661 8.8661C23.1722 9.55998 22.2311 9.9498 21.2498 9.9498C20.2685 9.9498 19.3274 9.55998 18.6335 8.8661C17.9396 8.17222 17.5498 7.23111 17.5498 6.2498C17.5498 5.2685 17.9396 4.32739 18.6335 3.63351ZM21.2498 4.9498C20.905 4.9498 20.5744 5.08677 20.3306 5.33057C20.0868 5.57436 19.9498 5.90502 19.9498 6.2498C19.9498 6.59459 20.0868 6.92525 20.3306 7.16904C20.5744 7.41284 20.905 7.5498 21.2498 7.5498C21.5946 7.5498 21.9252 7.41284 22.169 7.16904C22.4128 6.92525 22.5498 6.59459 22.5498 6.2498C22.5498 5.90502 22.4128 5.57436 22.169 5.33057C21.9252 5.08677 21.5946 4.9498 21.2498 4.9498Z" fill="#0068B7"/>
<path fill-rule="evenodd" clip-rule="evenodd" d="M19.9998 14.9498C19.9865 14.9498 19.9738 14.9551 19.9645 14.9644C19.9551 14.9738 19.9498 14.9865 19.9498 14.9998C19.9498 15.1288 19.929 15.2569 19.8882 15.3793L17.9147 21.2998H18.7498C19.4125 21.2998 19.9498 21.8371 19.9498 22.4998V27.4998C19.9498 28.1625 19.4125 28.6998 18.7498 28.6998C18.0871 28.6998 17.5498 28.1625 17.5498 27.4998V23.6998H16.2498C15.8641 23.6998 15.5019 23.5144 15.2763 23.2015C15.0508 22.8885 14.9894 22.4863 15.1114 22.1203L17.5603 14.7737C17.6128 14.2069 17.8615 13.6733 18.2674 13.2674C18.7269 12.8079 19.35 12.5498 19.9998 12.5498H22.4998C23.1496 12.5498 23.7728 12.8079 24.2322 13.2674C24.6381 13.6733 24.8869 14.2069 24.9394 14.7737L27.3882 22.1203C27.5102 22.4863 27.4488 22.8885 27.2233 23.2015C26.9978 23.5144 26.6355 23.6998 26.2498 23.6998H24.9498V27.4998C24.9498 28.1625 24.4125 28.6998 23.7498 28.6998C23.0871 28.6998 22.5498 28.1625 22.5498 27.4998V22.4998C22.5498 21.8371 23.0871 21.2998 23.7498 21.2998H24.5849L22.6114 15.3793C22.5706 15.2569 22.5498 15.1288 22.5498 14.9998C22.5498 14.9865 22.5445 14.9738 22.5352 14.9644C22.5258 14.9551 22.5131 14.9498 22.4998 14.9498H19.9998Z" fill="#11233F"/>
</g>
<defs>
<clipPath id="clip0_20_21">
<rect width="30" height="30" fill="white"/>
</clipPath>
</defs>
</svg>
