<svg width="24" height="22" viewBox="0 0 24 22" fill="none" xmlns="http://www.w3.org/2000/svg">
<path className="color1" fill-rule="evenodd" clip-rule="evenodd" d="M13.3 19.5C13.3 18.8373 13.8373 18.3 14.5 18.3H22C22.6627 18.3 23.2 18.8373 23.2 19.5C23.2 20.1627 22.6627 20.7 22 20.7H14.5C13.8373 20.7 13.3 20.1627 13.3 19.5Z" fill="#0068B7"/>
<path className="color1" d="M5.7498 0.799805C6.41255 0.799805 6.9498 1.33706 6.9498 1.9998V4.5498H9.4998C10.1625 4.5498 10.6998 5.08706 10.6998 5.7498C10.6998 6.41255 10.1625 6.9498 9.4998 6.9498H6.9498V9.4998C6.9498 10.1625 6.41255 10.6998 5.7498 10.6998C5.08706 10.6998 4.5498 10.1625 4.5498 9.4998V6.9498H1.9998C1.33706 6.9498 0.799805 6.41255 0.799805 5.7498C0.799805 5.08706 1.33706 4.5498 1.9998 4.5498H4.5498V1.9998C4.5498 1.33706 5.08706 0.799805 5.7498 0.799805Z" fill="#11233F"/>
<path className="color1" d="M21.5983 4.09833C22.067 3.6297 22.067 2.86991 21.5983 2.40128C21.1297 1.93265 20.3699 1.93265 19.9013 2.40128L2.40128 19.9013C1.93265 20.3699 1.93265 21.1297 2.40128 21.5983C2.86991 22.067 3.6297 22.067 4.09833 21.5983L21.5983 4.09833Z" fill="#11233F"/>
</svg>
