<svg width="34" height="36" viewBox="0 0 34 36" fill="none" xmlns="http://www.w3.org/2000/svg">
<g clip-path="url(#clip0_13_99)" filter="url(#filter0_d_13_99)">
<path fill-rule="evenodd" clip-rule="evenodd" d="M5.7498 2.5498C6.41255 2.5498 6.9498 3.08706 6.9498 3.7498V25.0498H28.2498C28.9125 25.0498 29.4498 25.5871 29.4498 26.2498C29.4498 26.9125 28.9125 27.4498 28.2498 27.4498H5.7498C5.08706 27.4498 4.5498 26.9125 4.5498 26.2498V3.7498C4.5498 3.08706 5.08706 2.5498 5.7498 2.5498ZM23.1335 6.13351C23.8274 5.43963 24.7685 5.0498 25.7498 5.0498C26.7311 5.0498 27.6722 5.43963 28.3661 6.13351C29.06 6.82739 29.4498 7.7685 29.4498 8.7498C29.4498 9.73111 29.06 10.6722 28.3661 11.3661C27.6722 12.06 26.7311 12.4498 25.7498 12.4498C25.4724 12.4498 25.1982 12.4186 24.9319 12.3583L21.8803 17.2911C21.5317 17.8547 20.7921 18.029 20.2285 17.6803C19.6649 17.3317 19.4906 16.5921 19.8393 16.0285L22.8898 11.0973C22.349 10.4385 22.0498 9.60957 22.0498 8.7498C22.0498 7.7685 22.4396 6.82739 23.1335 6.13351ZM25.7498 7.4498C25.405 7.4498 25.0744 7.58677 24.8306 7.83057C24.5868 8.07436 24.4498 8.40502 24.4498 8.7498C24.4498 9.09459 24.5868 9.42525 24.8306 9.66904C25.0744 9.91284 25.405 10.0498 25.7498 10.0498C26.0946 10.0498 26.4252 9.91284 26.669 9.66904C26.9128 9.42525 27.0498 9.09459 27.0498 8.7498C27.0498 8.40502 26.9128 8.07436 26.669 7.83057C26.4252 7.58677 26.0946 7.4498 25.7498 7.4498Z" fill="#11233F"/>
<path fill-rule="evenodd" clip-rule="evenodd" d="M10.6335 8.63351C11.3274 7.93962 12.2685 7.5498 13.2498 7.5498C14.2311 7.5498 15.1722 7.93963 15.8661 8.63351C16.56 9.32739 16.9498 10.2685 16.9498 11.2498C16.9498 12.0021 16.7207 12.7308 16.3011 13.3426L17.9606 15.3851C18.4391 15.1663 18.9635 15.0498 19.4998 15.0498C20.4811 15.0498 21.4222 15.4396 22.1161 16.1335C22.81 16.8274 23.1998 17.7685 23.1998 18.7498C23.1998 19.7311 22.81 20.6722 22.1161 21.3661C21.4222 22.06 20.4811 22.4498 19.4998 22.4498C18.5185 22.4498 17.5774 22.06 16.8835 21.3661C16.1896 20.6722 15.7998 19.7311 15.7998 18.7498C15.7998 18.1506 15.9452 17.5664 16.2163 17.0443L14.3728 14.7753C14.0129 14.8899 13.6345 14.9498 13.2498 14.9498C12.2685 14.9498 11.3274 14.56 10.6335 13.8661C9.93963 13.1722 9.5498 12.2311 9.5498 11.2498C9.5498 10.2685 9.93962 9.32739 10.6335 8.63351ZM14.0927 12.2395C14.0411 12.2699 13.991 12.3045 13.9431 12.3435C13.9339 12.3509 13.9249 12.3585 13.916 12.3661C13.7162 12.4853 13.4864 12.5498 13.2498 12.5498C12.905 12.5498 12.5744 12.4128 12.3306 12.169C12.0868 11.9252 11.9498 11.5946 11.9498 11.2498C11.9498 10.905 12.0868 10.5744 12.3306 10.3306C12.5744 10.0868 12.905 9.94981 13.2498 9.94981C13.5946 9.94981 13.9252 10.0868 14.169 10.3306C14.4128 10.5744 14.5498 10.905 14.5498 11.2498C14.5498 11.5946 14.4128 11.9252 14.169 12.169C14.1445 12.1936 14.119 12.2171 14.0927 12.2395ZM19.4998 17.4498C19.155 17.4498 18.8244 17.5868 18.5806 17.8306C18.3368 18.0744 18.1998 18.405 18.1998 18.7498C18.1998 19.0946 18.3368 19.4252 18.5806 19.669C18.8244 19.9128 19.155 20.0498 19.4998 20.0498C19.8446 20.0498 20.1752 19.9128 20.419 19.669C20.6628 19.4252 20.7998 19.0946 20.7998 18.7498C20.7998 18.405 20.6628 18.0744 20.419 17.8306C20.1752 17.5868 19.8446 17.4498 19.4998 17.4498Z" fill="#0068B7"/>
</g>
<defs>
<filter id="filter0_d_13_99" x="-2" y="0" width="38" height="38" filterUnits="userSpaceOnUse" color-interpolation-filters="sRGB">
<feFlood flood-opacity="0" result="BackgroundImageFix"/>
<feColorMatrix in="SourceAlpha" type="matrix" values="0 0 0 0 0 0 0 0 0 0 0 0 0 0 0 0 0 0 127 0" result="hardAlpha"/>
<feOffset dy="4"/>
<feGaussianBlur stdDeviation="2"/>
<feComposite in2="hardAlpha" operator="out"/>
<feColorMatrix type="matrix" values="0 0 0 0 0 0 0 0 0 0 0 0 0 0 0 0 0 0 0.25 0"/>
<feBlend mode="normal" in2="BackgroundImageFix" result="effect1_dropShadow_13_99"/>
<feBlend mode="normal" in="SourceGraphic" in2="effect1_dropShadow_13_99" result="shape"/>
</filter>
<clipPath id="clip0_13_99">
<rect width="30" height="30" fill="white" transform="translate(2)"/>
</clipPath>
</defs>
</svg>
