<svg width="30" height="30" viewBox="0 0 30 30" fill="none" xmlns="http://www.w3.org/2000/svg">
<g clip-path="url(#clip0_13_99)">
<path fill-rule="evenodd" clip-rule="evenodd" d="M3.7498 2.5498C4.41255 2.5498 4.9498 3.08706 4.9498 3.7498V25.0498H26.2498C26.9125 25.0498 27.4498 25.5871 27.4498 26.2498C27.4498 26.9125 26.9125 27.4498 26.2498 27.4498H3.7498C3.08706 27.4498 2.5498 26.9125 2.5498 26.2498V3.7498C2.5498 3.08706 3.08706 2.5498 3.7498 2.5498ZM21.1335 6.13351C21.8274 5.43963 22.7685 5.0498 23.7498 5.0498C24.7311 5.0498 25.6722 5.43963 26.3661 6.13351C27.06 6.82739 27.4498 7.7685 27.4498 8.7498C27.4498 9.73111 27.06 10.6722 26.3661 11.3661C25.6722 12.06 24.7311 12.4498 23.7498 12.4498C23.4724 12.4498 23.1982 12.4186 22.9319 12.3583L19.8803 17.2911C19.5317 17.8547 18.7921 18.029 18.2285 17.6803C17.6649 17.3317 17.4906 16.5921 17.8393 16.0285L20.8898 11.0973C20.349 10.4385 20.0498 9.60957 20.0498 8.7498C20.0498 7.7685 20.4396 6.82739 21.1335 6.13351ZM23.7498 7.4498C23.405 7.4498 23.0744 7.58677 22.8306 7.83057C22.5868 8.07436 22.4498 8.40502 22.4498 8.7498C22.4498 9.09459 22.5868 9.42525 22.8306 9.66904C23.0744 9.91284 23.405 10.0498 23.7498 10.0498C24.0946 10.0498 24.4252 9.91284 24.669 9.66904C24.9128 9.42525 25.0498 9.09459 25.0498 8.7498C25.0498 8.40502 24.9128 8.07436 24.669 7.83057C24.4252 7.58677 24.0946 7.4498 23.7498 7.4498Z" fill="#11233F"/>
<path fill-rule="evenodd" clip-rule="evenodd" d="M8.63351 8.63351C9.32739 7.93962 10.2685 7.5498 11.2498 7.5498C12.2311 7.5498 13.1722 7.93963 13.8661 8.63351C14.56 9.32739 14.9498 10.2685 14.9498 11.2498C14.9498 12.0021 14.7207 12.7308 14.3011 13.3426L15.9606 15.3851C16.4391 15.1663 16.9635 15.0498 17.4998 15.0498C18.4811 15.0498 19.4222 15.4396 20.1161 16.1335C20.81 16.8274 21.1998 17.7685 21.1998 18.7498C21.1998 19.7311 20.81 20.6722 20.1161 21.3661C19.4222 22.06 18.4811 22.4498 17.4998 22.4498C16.5185 22.4498 15.5774 22.06 14.8835 21.3661C14.1896 20.6722 13.7998 19.7311 13.7998 18.7498C13.7998 18.1506 13.9452 17.5664 14.2163 17.0443L12.3728 14.7753C12.0129 14.8899 11.6345 14.9498 11.2498 14.9498C10.2685 14.9498 9.32739 14.56 8.63351 13.8661C7.93963 13.1722 7.5498 12.2311 7.5498 11.2498C7.5498 10.2685 7.93962 9.32739 8.63351 8.63351ZM12.0927 12.2395C12.0411 12.2699 11.991 12.3045 11.9431 12.3435C11.9339 12.3509 11.9249 12.3585 11.916 12.3661C11.7162 12.4853 11.4864 12.5498 11.2498 12.5498C10.905 12.5498 10.5744 12.4128 10.3306 12.169C10.0868 11.9252 9.94981 11.5946 9.94981 11.2498C9.94981 10.905 10.0868 10.5744 10.3306 10.3306C10.5744 10.0868 10.905 9.94981 11.2498 9.94981C11.5946 9.94981 11.9252 10.0868 12.169 10.3306C12.4128 10.5744 12.5498 10.905 12.5498 11.2498C12.5498 11.5946 12.4128 11.9252 12.169 12.169C12.1445 12.1936 12.119 12.2171 12.0927 12.2395ZM17.4998 17.4498C17.155 17.4498 16.8244 17.5868 16.5806 17.8306C16.3368 18.0744 16.1998 18.405 16.1998 18.7498C16.1998 19.0946 16.3368 19.4252 16.5806 19.669C16.8244 19.9128 17.155 20.0498 17.4998 20.0498C17.8446 20.0498 18.1752 19.9128 18.419 19.669C18.6628 19.4252 18.7998 19.0946 18.7998 18.7498C18.7998 18.405 18.6628 18.0744 18.419 17.8306C18.1752 17.5868 17.8446 17.4498 17.4998 17.4498Z" fill="#0068B7"/>
</g>
<defs>
<clipPath id="clip0_13_99">
<rect width="30" height="30" fill="white"/>
</clipPath>
</defs>
</svg>
