<svg width="30" height="30" viewBox="0 0 30 30" fill="none" xmlns="http://www.w3.org/2000/svg">
<g clip-path="url(#clip0_13_117)">
<path fill-rule="evenodd" clip-rule="evenodd" d="M6.86574 4.36574C8.02847 3.20302 9.60546 2.5498 11.2498 2.5498C12.8941 2.5498 14.4711 3.20302 15.6339 4.36574C16.7966 5.52847 17.4498 7.10546 17.4498 8.7498C17.4498 10.3941 16.7966 11.9711 15.6339 13.1339C14.4711 14.2966 12.8941 14.9498 11.2498 14.9498C9.60546 14.9498 8.02847 14.2966 6.86574 13.1339C5.70302 11.9711 5.0498 10.3941 5.0498 8.7498C5.0498 7.10546 5.70302 5.52847 6.86574 4.36574ZM11.2498 4.9498C10.242 4.9498 9.27544 5.35016 8.5628 6.0628C7.85016 6.77544 7.4498 7.74198 7.4498 8.7498C7.4498 9.75763 7.85016 10.7242 8.5628 11.4368C9.27544 12.1494 10.242 12.5498 11.2498 12.5498C12.2576 12.5498 13.2242 12.1494 13.9368 11.4368C14.6494 10.7242 15.0498 9.75763 15.0498 8.7498C15.0498 7.74198 14.6494 6.77544 13.9368 6.0628C13.2242 5.35016 12.2576 4.9498 11.2498 4.9498ZM8.7498 19.9498C7.74198 19.9498 6.77544 20.3502 6.0628 21.0628C5.35016 21.7754 4.9498 22.742 4.9498 23.7498V26.2498C4.9498 26.9125 4.41255 27.4498 3.7498 27.4498C3.08706 27.4498 2.5498 26.9125 2.5498 26.2498V23.7498C2.5498 22.1055 3.20302 20.5285 4.36574 19.3657C5.52847 18.203 7.10546 17.5498 8.7498 17.5498H13.7498C15.2185 17.5498 16.5686 18.0622 17.6304 18.9136C18.1475 19.3281 18.2306 20.0834 17.816 20.6004C17.4015 21.1175 16.6462 21.2006 16.1292 20.786C15.476 20.2624 14.6511 19.9498 13.7498 19.9498H8.7498Z" fill="#11233F"/>
<path fill-rule="evenodd" clip-rule="evenodd" d="M18.8373 3.61466C19.0017 2.97263 19.6554 2.58542 20.2975 2.7498C21.6311 3.09127 22.8132 3.86689 23.6573 4.95439C24.5014 6.04188 24.9596 7.37939 24.9596 8.75605C24.9596 10.1327 24.5014 11.4702 23.6573 12.5577C22.8132 13.6452 21.6311 14.4208 20.2975 14.7623C19.6554 14.9267 19.0017 14.5395 18.8373 13.8975C18.6729 13.2554 19.0601 12.6017 19.7022 12.4373C20.5196 12.228 21.244 11.7526 21.7614 11.0861C22.2788 10.4196 22.5596 9.59982 22.5596 8.75605C22.5596 7.91229 22.2788 7.09253 21.7614 6.426C21.244 5.75947 20.5196 5.28409 19.7022 5.0748C19.0601 4.91042 18.6729 4.25669 18.8373 3.61466ZM18.7998 23.7498C18.7998 23.0871 19.3371 22.5498 19.9998 22.5498H27.4998C28.1625 22.5498 28.6998 23.0871 28.6998 23.7498C28.6998 24.4125 28.1625 24.9498 27.4998 24.9498H19.9998C19.3371 24.9498 18.7998 24.4125 18.7998 23.7498Z" fill="#0068B7"/>
</g>
<defs>
<clipPath id="clip0_13_117">
<rect width="30" height="30" fill="white"/>
</clipPath>
</defs>
</svg>
