<svg width="30" height="30" viewBox="0 0 30 30" fill="none" xmlns="http://www.w3.org/2000/svg">
<g clip-path="url(#clip0_13_142)">
<path d="M15 15V13.75" stroke="#11233F" stroke-width="2.4" stroke-linecap="round" stroke-linejoin="round"/>
<path fill-rule="evenodd" clip-rule="evenodd" d="M4.9998 6.1998C4.98654 6.1998 4.97383 6.20507 4.96445 6.21445C4.95507 6.22383 4.9498 6.23654 4.9498 6.2498V18.7498C4.9498 18.7631 4.95507 18.7758 4.96445 18.7852C4.97383 18.7945 4.98654 18.7998 4.9998 18.7998H24.9998C25.0131 18.7998 25.0258 18.7945 25.0352 18.7852C25.0445 18.7758 25.0498 18.7631 25.0498 18.7498V6.2498C25.0498 6.23654 25.0445 6.22382 25.0352 6.21445C25.0258 6.20507 25.0131 6.1998 24.9998 6.1998H4.9998ZM19.9498 21.1998H24.9998C25.6496 21.1998 26.2728 20.9417 26.7322 20.4822C27.1917 20.0227 27.4498 19.3996 27.4498 18.7498V6.2498C27.4498 5.60003 27.1917 4.97686 26.7322 4.51739C26.2728 4.05793 25.6496 3.7998 24.9998 3.7998H4.9998C4.35002 3.7998 3.72686 4.05793 3.26739 4.51739C2.80793 4.97686 2.5498 5.60002 2.5498 6.2498V18.7498C2.5498 19.3996 2.80793 20.0228 3.26739 20.4822C3.72686 20.9417 4.35002 21.1998 4.9998 21.1998H10.0498V23.7998H8.7498C8.08706 23.7998 7.5498 24.3371 7.5498 24.9998C7.5498 25.6625 8.08706 26.1998 8.7498 26.1998H21.2498C21.9125 26.1998 22.4498 25.6625 22.4498 24.9998C22.4498 24.3371 21.9125 23.7998 21.2498 23.7998H19.9498V21.1998ZM17.5498 21.1998H12.4498V23.7998H17.5498V21.1998Z" fill="#11233F"/>
<path fill-rule="evenodd" clip-rule="evenodd" d="M11.2498 8.7998C11.9125 8.7998 12.4498 9.33706 12.4498 9.9998V14.9998C12.4498 15.6625 11.9125 16.1998 11.2498 16.1998C10.5871 16.1998 10.0498 15.6625 10.0498 14.9998V9.9998C10.0498 9.33706 10.5871 8.7998 11.2498 8.7998ZM18.7498 11.2998C19.4125 11.2998 19.9498 11.8371 19.9498 12.4998V14.9998C19.9498 15.6625 19.4125 16.1998 18.7498 16.1998C18.0871 16.1998 17.5498 15.6625 17.5498 14.9998V12.4998C17.5498 11.8371 18.0871 11.2998 18.7498 11.2998ZM14.9998 12.5498C15.6625 12.5498 16.1998 13.0871 16.1998 13.7498V14.9998C16.1998 15.6625 15.6625 16.1998 14.9998 16.1998C14.3371 16.1998 13.7998 15.6625 13.7998 14.9998V13.7498C13.7998 13.0871 14.3371 12.5498 14.9998 12.5498Z" fill="#0068B7"/>
</g>
<defs>
<clipPath id="clip0_13_142">
<rect width="30" height="30" fill="white"/>
</clipPath>
</defs>
</svg>
