<svg width="30" height="30" viewBox="0 0 30 30" fill="none" xmlns="http://www.w3.org/2000/svg">
<g clip-path="url(#clip0_20_8)">
<path fill-rule="evenodd" clip-rule="evenodd" d="M8.7498 7.4498C8.0735 7.4498 7.4249 7.71846 6.94668 8.19668C6.46846 8.6749 6.1998 9.3235 6.1998 9.9998V23.3527L9.15128 20.4013C9.37632 20.1762 9.68154 20.0498 9.9998 20.0498H21.2498C21.9261 20.0498 22.5747 19.7811 23.0529 19.3029C23.5311 18.8247 23.7998 18.1761 23.7998 17.4998V9.9998C23.7998 9.3235 23.5311 8.6749 23.0529 8.19668C22.5747 7.71846 21.9261 7.4498 21.2498 7.4498H8.7498ZM5.24963 6.49963C6.17793 5.57132 7.43698 5.0498 8.7498 5.0498H21.2498C22.5626 5.0498 23.8217 5.57132 24.75 6.49963C25.6783 7.42793 26.1998 8.68698 26.1998 9.9998V17.4998C26.1998 18.8126 25.6783 20.0717 24.75 21C23.8217 21.9283 22.5626 22.4498 21.2498 22.4498H10.4969L5.84833 27.0983C5.50514 27.4415 4.98899 27.5442 4.54058 27.3585C4.09218 27.1727 3.7998 26.7352 3.7998 26.2498V9.9998C3.7998 8.68698 4.32132 7.42793 5.24963 6.49963Z" fill="#11233F"/>
<path fill-rule="evenodd" clip-rule="evenodd" d="M10.6748 11.2498C10.6748 10.5871 11.2121 10.0498 11.8748 10.0498H11.8873C12.55 10.0498 13.0873 10.5871 13.0873 11.2498C13.0873 11.9125 12.55 12.4498 11.8873 12.4498H11.8748C11.2121 12.4498 10.6748 11.9125 10.6748 11.2498Z" fill="#0068B7"/>
<path fill-rule="evenodd" clip-rule="evenodd" d="M16.9248 11.2498C16.9248 10.5871 17.4621 10.0498 18.1248 10.0498H18.1373C18.8 10.0498 19.3373 10.5871 19.3373 11.2498C19.3373 11.9125 18.8 12.4498 18.1373 12.4498H18.1248C17.4621 12.4498 16.9248 11.9125 16.9248 11.2498Z" fill="#0068B7"/>
<path fill-rule="evenodd" clip-rule="evenodd" d="M11.035 15.3927C11.5084 14.9288 12.2681 14.9366 12.7319 15.41C13.0276 15.7117 13.3804 15.9514 13.7698 16.115C14.1593 16.2787 14.5774 16.3629 14.9998 16.3629C15.4222 16.3629 15.8404 16.2787 16.2298 16.115C16.6192 15.9514 16.972 15.7117 17.2677 15.41C17.7315 14.9366 18.4912 14.9288 18.9646 15.3927C19.438 15.8565 19.4458 16.6162 18.9819 17.0896C18.4629 17.6194 17.8433 18.0403 17.1595 18.3276C16.4757 18.6149 15.7415 18.7629 14.9998 18.7629C14.2581 18.7629 13.5239 18.6149 12.8401 18.3276C12.1563 18.0403 11.5367 17.6194 11.0177 17.0896C10.5538 16.6162 10.5616 15.8565 11.035 15.3927Z" fill="#0068B7"/>
</g>
<defs>
<clipPath id="clip0_20_8">
<rect width="30" height="30" fill="white"/>
</clipPath>
</defs>
</svg>
