<svg width="24" height="23" viewBox="0 0 24 23" fill="none" xmlns="http://www.w3.org/2000/svg">
<path fill-rule="evenodd" clip-rule="evenodd" d="M5.7498 2.4498C5.0735 2.4498 4.4249 2.71846 3.94668 3.19668C3.46846 3.6749 3.1998 4.3235 3.1998 4.9998V18.3527L6.15128 15.4013C6.37632 15.1762 6.68154 15.0498 6.9998 15.0498H18.2498C18.9261 15.0498 19.5747 14.7811 20.0529 14.3029C20.5311 13.8247 20.7998 13.1761 20.7998 12.4998V4.9998C20.7998 4.3235 20.5311 3.6749 20.0529 3.19668C19.5747 2.71846 18.9261 2.4498 18.2498 2.4498H5.7498ZM2.24963 1.49963C3.17793 0.571321 4.43698 0.0498047 5.7498 0.0498047H18.2498C19.5626 0.0498047 20.8217 0.571321 21.75 1.49963C22.6783 2.42793 23.1998 3.68698 23.1998 4.9998V12.4998C23.1998 13.8126 22.6783 15.0717 21.75 16C20.8217 16.9283 19.5626 17.4498 18.2498 17.4498H7.49686L2.84833 22.0983C2.50514 22.4415 1.98899 22.5442 1.54058 22.3585C1.09218 22.1727 0.799805 21.7352 0.799805 21.2498V4.9998C0.799805 3.68698 1.32132 2.42793 2.24963 1.49963Z" fill="white"/>
<path fill-rule="evenodd" clip-rule="evenodd" d="M7.6748 6.2498C7.6748 5.58706 8.21206 5.0498 8.8748 5.0498H8.8873C9.55005 5.0498 10.0873 5.58706 10.0873 6.2498C10.0873 6.91255 9.55005 7.4498 8.8873 7.4498H8.8748C8.21206 7.4498 7.6748 6.91255 7.6748 6.2498ZM13.9248 6.2498C13.9248 5.58706 14.4621 5.0498 15.1248 5.0498H15.1373C15.8 5.0498 16.3373 5.58706 16.3373 6.2498C16.3373 6.91255 15.8 7.4498 15.1373 7.4498H15.1248C14.4621 7.4498 13.9248 6.91255 13.9248 6.2498ZM8.03498 10.3927C8.50837 9.92884 9.26812 9.93659 9.73195 10.41C10.0276 10.7117 10.3804 10.9514 10.7698 11.115C11.1593 11.2787 11.5774 11.3629 11.9998 11.3629C12.4222 11.3629 12.8404 11.2787 13.2298 11.115C13.6192 10.9514 13.972 10.7117 14.2677 10.41C14.7315 9.93659 15.4912 9.92884 15.9646 10.3927C16.438 10.8565 16.4458 11.6162 15.9819 12.0896C15.4629 12.6194 14.8433 13.0403 14.1595 13.3276C13.4757 13.6149 12.7415 13.7629 11.9998 13.7629C11.2581 13.7629 10.5239 13.6149 9.84009 13.3276C9.15631 13.0403 8.53674 12.6194 8.01766 12.0896C7.55384 11.6162 7.56159 10.8565 8.03498 10.3927Z" fill="white"/>
</svg>
