<svg width="30" height="30" viewBox="0 0 30 30" fill="none" xmlns="http://www.w3.org/2000/svg">
<g clip-path="url(#clip0_89_72)">
<g filter="url(#filter0_d_89_72)">
<path d="M28 15C28 22.1797 22.1797 28 15 28C7.8203 28 2 22.1797 2 15C2 7.8203 7.8203 2 15 2C22.1797 2 28 7.8203 28 15Z" fill="url(#paint0_linear_89_72)"/>
<path d="M10.7414 20.8276C10.3099 20.8276 9.94042 20.6738 9.63291 20.3663C9.32539 20.0588 9.17189 19.6896 9.17242 19.2586V16.9052H10.7414V19.2586H20.1552V16.9052H21.7241V19.2586C21.7241 19.6901 21.5704 20.0596 21.2629 20.3671C20.9553 20.6746 20.5861 20.8281 20.1552 20.8276H10.7414ZM15.4483 17.6897L11.5259 13.7672L12.6241 12.6297L14.6638 14.6694V8.27586H16.2328V14.6694L18.2724 12.6297L19.3707 13.7672L15.4483 17.6897Z" fill="white"/>
</g>
</g>
<defs>
<filter id="filter0_d_89_72" x="1" y="1" width="30" height="30" filterUnits="userSpaceOnUse" color-interpolation-filters="sRGB">
<feFlood flood-opacity="0" result="BackgroundImageFix"/>
<feColorMatrix in="SourceAlpha" type="matrix" values="0 0 0 0 0 0 0 0 0 0 0 0 0 0 0 0 0 0 127 0" result="hardAlpha"/>
<feOffset dx="1" dy="1"/>
<feGaussianBlur stdDeviation="1"/>
<feComposite in2="hardAlpha" operator="out"/>
<feColorMatrix type="matrix" values="0 0 0 0 0.215686 0 0 0 0 0.215686 0 0 0 0 0.215686 0 0 0 0.25 0"/>
<feBlend mode="normal" in2="BackgroundImageFix" result="effect1_dropShadow_89_72"/>
<feBlend mode="normal" in="SourceGraphic" in2="effect1_dropShadow_89_72" result="shape"/>
</filter>
<linearGradient id="paint0_linear_89_72" x1="15" y1="2" x2="15" y2="28" gradientUnits="userSpaceOnUse">
<stop stop-color="#254371"/>
<stop offset="1" stop-color="#11233F"/>
</linearGradient>
<clipPath id="clip0_89_72">
<rect width="30" height="30" fill="white"/>
</clipPath>
</defs>
</svg>
