<svg width="15" height="15" viewBox="0 0 15 15" fill="none" xmlns="http://www.w3.org/2000/svg">
<path d="M9.51792 8.6926L12.0163 11.1904L11.1909 12.0158L8.69309 9.51743C7.76369 10.2625 6.60767 10.6677 5.4165 10.666C2.5185 10.666 0.166504 8.31402 0.166504 5.41602C0.166504 2.51802 2.5185 0.166016 5.4165 0.166016C8.3145 0.166016 10.6665 2.51802 10.6665 5.41602C10.6682 6.60718 10.263 7.7632 9.51792 8.6926ZM8.34775 8.25977C9.08807 7.49845 9.50151 6.47793 9.49984 5.41602C9.49984 3.15968 7.67225 1.33268 5.4165 1.33268C3.16017 1.33268 1.33317 3.15968 1.33317 5.41602C1.33317 7.67177 3.16017 9.49935 5.4165 9.49935C6.47842 9.50102 7.49894 9.08758 8.26025 8.34727L8.34775 8.25977Z" fill="black"/>
</svg>
