<svg width="16" height="16" viewBox="0 0 16 16" fill="none" xmlns="http://www.w3.org/2000/svg">
<path d="M12.164 11.0608L15.2 14.0962L14.197 15.0992L11.1616 12.0631C10.0322 12.9685 8.6274 13.461 7.17989 13.4589C3.65822 13.4589 0.800049 10.6007 0.800049 7.07906C0.800049 3.55739 3.65822 0.699219 7.17989 0.699219C10.7016 0.699219 13.5597 3.55739 13.5597 7.07906C13.5618 8.52657 13.0693 9.93137 12.164 11.0608ZM10.742 10.5348C11.6416 9.60964 12.144 8.3695 12.142 7.07906C12.142 4.33714 9.92109 2.11696 7.17989 2.11696C4.43797 2.11696 2.21779 4.33714 2.21779 7.07906C2.21779 9.82026 4.43797 12.0412 7.17989 12.0412C8.47033 12.0432 9.71047 11.5408 10.6356 10.6411L10.742 10.5348Z" fill="white"/>
</svg>
